HIERARCHY
ROOT Hips
{
	OFFSET 0.000000 103.266502 0.000000
	CHANNELS 6 Xposition Yposition Zposition Xrotation Yrotation Zrotation 
	JOINT Spine
	{
		OFFSET -0.002400 12.777504 0.315300
		CHANNELS 3 Xrotation Yrotation Zrotation
		JOINT Spine1
		{
			OFFSET -0.002067 5.816869 0.032633
			CHANNELS 3 Xrotation Yrotation Zrotation
			JOINT Spine1_split
			{
				OFFSET -0.002067 5.816869 0.032633
				CHANNELS 3 Xrotation Yrotation Zrotation
				JOINT Spine2
				{
					OFFSET -0.002067 5.816869 0.032633
					CHANNELS 3 Xrotation Yrotation Zrotation
					JOINT Neck
					{
						OFFSET -0.003700 21.199493 -0.826900
						CHANNELS 3 Xrotation Yrotation Zrotation
						JOINT Head
						{
							OFFSET 0.000000 20.442200 4.834800
							CHANNELS 3 Xrotation Yrotation Zrotation
							JOINT HeadTop_End
							{
								OFFSET 0.000000 34.668396 4.968400
								CHANNELS 3 Xrotation Yrotation Zrotation
								End Site
								{
									OFFSET 0.000000 0.000000 0.000000
								}
							}
						}
					}
					JOINT LeftShoulder
					{
						OFFSET 3.288150 8.794197 -1.372250
						CHANNELS 3 Xrotation Yrotation Zrotation
						JOINT LeftShoulder_split
						{
							OFFSET 3.288150 8.794197 -1.372250
							CHANNELS 3 Xrotation Yrotation Zrotation
							JOINT LeftArm
							{
								OFFSET 11.953299 -2.279007 -0.146200
								CHANNELS 3 Xrotation Yrotation Zrotation
								JOINT LeftForeArm
								{
									OFFSET 18.448900 0.000000 0.000000
									CHANNELS 3 Xrotation Yrotation Zrotation
									JOINT LeftHand
									{
										OFFSET 29.527798 0.000000 0.000000
										CHANNELS 3 Xrotation Yrotation Zrotation
										JOINT LeftHandThumb1
										{
											OFFSET 10.739754 -2.369614 9.225399
											CHANNELS 3 Xrotation Yrotation Zrotation
											JOINT LeftHandThumb2
											{
												OFFSET 4.926170 -2.844131 2.844125
												CHANNELS 3 Xrotation Yrotation Zrotation
												JOINT LeftHandThumb3
												{
													OFFSET 4.614891 -2.664413 2.664409
													CHANNELS 3 Xrotation Yrotation Zrotation
													JOINT LeftHandThumb4
													{
														OFFSET 4.432465 -2.559082 2.559083
														CHANNELS 3 Xrotation Yrotation Zrotation
														End Site
														{
															OFFSET 0.000000 0.000000 0.000000
														}
													}
												}
											}
										}
										JOINT LeftHandIndex1
										{
											OFFSET 26.467674 0.187653 6.405298
											CHANNELS 3 Xrotation Yrotation Zrotation
											JOINT LeftHandIndex2
											{
												OFFSET 8.792900 0.000000 0.000000
												CHANNELS 3 Xrotation Yrotation Zrotation
												JOINT LeftHandIndex3
												{
													OFFSET 10.075203 0.000000 0.000000
													CHANNELS 3 Xrotation Yrotation Zrotation
													End Site
													{
														OFFSET 0.000000 0.000000 0.000000
													}
												}
											}
										}
										JOINT LeftHandMiddle1
										{
											OFFSET 25.764404 0.000000 0.000000
											CHANNELS 3 Xrotation Yrotation Zrotation
											JOINT LeftHandMiddle2
											{
												OFFSET 9.393974 0.000000 0.000000
												CHANNELS 3 Xrotation Yrotation Zrotation
												JOINT LeftHandMiddle3
												{
													OFFSET 10.771950 0.000000 0.000000
													CHANNELS 3 Xrotation Yrotation Zrotation
													End Site
													{
														OFFSET 0.000000 0.000000 0.000000
													}
												}
											}
										}
										JOINT LeftHandRing1
										{
											OFFSET 24.660927 0.144547 -6.225808
											CHANNELS 3 Xrotation Yrotation Zrotation
											JOINT LeftHandRing2
											{
												OFFSET 9.393799 0.000000 0.000000
												CHANNELS 3 Xrotation Yrotation Zrotation
												JOINT LeftHandRing3
												{
													OFFSET 9.928497 0.000000 0.000000
													CHANNELS 3 Xrotation Yrotation Zrotation
													End Site
													{
														OFFSET 0.000000 0.000000 0.000000
													}
												}
											}
										}
										JOINT LeftHandPinky1
										{
											OFFSET 23.655350 0.125290 -12.815412
											CHANNELS 3 Xrotation Yrotation Zrotation
											JOINT LeftHandPinky2
											{
												OFFSET 8.425102 0.000000 0.000000
												CHANNELS 3 Xrotation Yrotation Zrotation
												JOINT LeftHandPinky3
												{
													OFFSET 8.147003 0.000000 0.000000
													CHANNELS 3 Xrotation Yrotation Zrotation
													End Site
													{
														OFFSET 0.000000 0.000000 0.000000
													}
												}
											}
										}
									}
								}
							}
						}
					}
					JOINT RightShoulder
					{
						OFFSET -3.249400 8.794197 -1.372250
						CHANNELS 3 Xrotation Yrotation Zrotation
						JOINT RightShoulder_split
						{
							OFFSET -3.249400 8.794197 -1.372250
							CHANNELS 3 Xrotation Yrotation Zrotation
							JOINT RightArm
							{
								OFFSET -11.953299 -2.279007 -0.146200
								CHANNELS 3 Xrotation Yrotation Zrotation
								JOINT RightForeArm
								{
									OFFSET -18.448900 0.000000 0.000000
									CHANNELS 3 Xrotation Yrotation Zrotation
									JOINT RightHand
									{
										OFFSET -29.527802 0.000000 0.000000
										CHANNELS 3 Xrotation Yrotation Zrotation
										JOINT RightHandThumb1
										{
											OFFSET -10.739754 -2.369614 9.225399
											CHANNELS 3 Xrotation Yrotation Zrotation
											JOINT RightHandThumb2
											{
												OFFSET -4.926170 -2.844131 2.844125
												CHANNELS 3 Xrotation Yrotation Zrotation
												JOINT RightHandThumb3
												{
													OFFSET -4.614891 -2.664413 2.664409
													CHANNELS 3 Xrotation Yrotation Zrotation
													JOINT RightHandThumb4
													{
														OFFSET -4.432465 -2.559082 2.559083
														CHANNELS 3 Xrotation Yrotation Zrotation
														End Site
														{
															OFFSET 0.000000 0.000000 0.000000
														}
													}
												}
											}
										}
										JOINT RightHandIndex1
										{
											OFFSET -26.467674 0.187653 6.405298
											CHANNELS 3 Xrotation Yrotation Zrotation
											JOINT RightHandIndex2
											{
												OFFSET -8.792900 0.000000 0.000000
												CHANNELS 3 Xrotation Yrotation Zrotation
												JOINT RightHandIndex3
												{
													OFFSET -10.075203 0.000000 0.000000
													CHANNELS 3 Xrotation Yrotation Zrotation
													End Site
													{
														OFFSET 0.000000 0.000000 0.000000
													}
												}
											}
										}
										JOINT RightHandMiddle1
										{
											OFFSET -25.764404 0.000000 0.000000
											CHANNELS 3 Xrotation Yrotation Zrotation
											JOINT RightHandMiddle2
											{
												OFFSET -9.393974 0.000000 0.000000
												CHANNELS 3 Xrotation Yrotation Zrotation
												JOINT RightHandMiddle3
												{
													OFFSET -10.771950 0.000000 0.000000
													CHANNELS 3 Xrotation Yrotation Zrotation
													End Site
													{
														OFFSET 0.000000 0.000000 0.000000
													}
												}
											}
										}
										JOINT RightHandRing1
										{
											OFFSET -24.660927 0.144547 -6.225808
											CHANNELS 3 Xrotation Yrotation Zrotation
											JOINT RightHandRing2
											{
												OFFSET -9.393799 0.000000 0.000000
												CHANNELS 3 Xrotation Yrotation Zrotation
												JOINT RightHandRing3
												{
													OFFSET -9.928497 0.000000 0.000000
													CHANNELS 3 Xrotation Yrotation Zrotation
													End Site
													{
														OFFSET 0.000000 0.000000 0.000000
													}
												}
											}
										}
										JOINT RightHandPinky1
										{
											OFFSET -23.655350 0.125290 -12.815412
											CHANNELS 3 Xrotation Yrotation Zrotation
											JOINT RightHandPinky2
											{
												OFFSET -8.425102 0.000000 0.000000
												CHANNELS 3 Xrotation Yrotation Zrotation
												JOINT RightHandPinky3
												{
													OFFSET -8.147003 0.000000 0.000000
													CHANNELS 3 Xrotation Yrotation Zrotation
													End Site
													{
														OFFSET 0.000000 0.000000 0.000000
													}
												}
											}
										}
									}
								}
							}
						}
					}
				}
			}
		}
	}
	JOINT LeftUpLeg
	{
		OFFSET 11.394100 -6.187798 -0.413800
		CHANNELS 3 Xrotation Yrotation Zrotation
		JOINT LeftLeg
		{
			OFFSET 0.430247 -32.302673 3.732800
			CHANNELS 3 Xrotation Yrotation Zrotation
			JOINT LeftFoot
			{
				OFFSET -0.430247 -48.264931 -6.423300
				CHANNELS 3 Xrotation Yrotation Zrotation
				JOINT LeftToeBase
				{
					OFFSET 4.230900 -16.068199 23.438400
					CHANNELS 3 Xrotation Yrotation Zrotation
					JOINT LeftToe_End
					{
						OFFSET 4.510700 0.695400 19.974600
						CHANNELS 3 Xrotation Yrotation Zrotation
						End Site
						{
							OFFSET 0.000000 0.000000 0.000000
						}
					}
				}
			}
		}
	}
	JOINT RightUpLeg
	{
		OFFSET -11.333700 -6.187798 -0.413800
		CHANNELS 3 Xrotation Yrotation Zrotation
		JOINT RightLeg
		{
			OFFSET -0.430392 -32.302628 3.733000
			CHANNELS 3 Xrotation Yrotation Zrotation
			JOINT RightFoot
			{
				OFFSET 0.430392 -48.264973 -6.423500
				CHANNELS 3 Xrotation Yrotation Zrotation
				JOINT RightToeBase
				{
					OFFSET -4.230900 -16.068199 23.438400
					CHANNELS 3 Xrotation Yrotation Zrotation
					JOINT RightToe_End
					{
						OFFSET -4.510700 0.695400 19.974600
						CHANNELS 3 Xrotation Yrotation Zrotation
						End Site
						{
							OFFSET 0.000000 0.000000 0.000000
						}
					}
				}
			}
		}
	}
}
MOTION
Frames: 6
Frame Time: 0.016667
-0.106156 100.121002 -1.160863 -0.284014 0.005959 -2.661457 0.565483 -1.397427 0.659730 0.884704 -0.154384 2.637805 0.000000 0.000000 0.000000 0.868038 0.313564 2.550323 1.242740 -0.362780 0.178330 1.579608 0.543348 -5.747759 0.000000 0.000000 0.000000 0.000018 -0.000019 -0.312853 0.000000 0.000000 0.000000 3.284675 -25.851918 -73.291577 2.210834 -20.459236 0.701236 -31.889801 -2.761247 2.775364 15.772751 2.736690 17.226140 -2.095497 31.047779 -7.361407 -6.566813 4.137874 -2.408521 0.000000 -0.000001 0.000000 2.369900 3.655775 -8.470942 -2.148817 2.464581 -18.676466 -0.000000 0.000001 -0.000003 -1.977819 5.701674 -13.647585 0.262674 5.095093 -26.987879 0.000000 0.000001 -0.000004 -3.264377 8.554504 -11.754359 4.032605 4.051319 -33.265214 -0.000000 -0.000000 -0.000001 -6.476554 11.333638 -23.247073 10.714842 2.545228 -34.824693 -0.000000 -0.000001 -0.000006 0.000036 -0.000016 0.312818 0.000000 0.000000 0.000000 5.327959 -3.221400 75.188724 -0.286934 18.989997 0.139595 -7.879835 -10.226552 5.197531 15.779550 -2.730615 -17.214059 -2.090678 -31.045908 7.368375 -6.565834 -4.138829 2.408548 0.000000 0.000001 0.000000 2.372142 -3.655208 8.489140 -2.148906 -2.464953 18.674623 -0.000001 -0.000000 -0.000000 -1.976881 -5.701816 13.665522 0.262181 -5.094027 26.988710 -0.000001 -0.000001 0.000001 -3.260101 -8.214669 11.646173 4.031940 -4.048814 33.264763 0.000000 -0.000000 0.000004 -6.475838 -11.337694 23.265615 10.714916 -2.543895 34.823764 0.000001 -0.000000 0.000004 -19.852010 11.550433 13.436011 21.328801 11.795682 0.919836 -0.454546 2.605942 -7.350115 -0.473466 -0.000564 -0.000008 -0.000000 -0.000001 -0.000000 -6.001300 -4.242038 2.118874 16.774501 -2.824131 3.680909 -10.317755 -0.097335 -3.031503 -0.586283 -0.000190 -0.000008 -0.000000 0.000000 -0.000000 
-0.085230 100.095779 -1.355513 -0.836383 -1.530143 -2.738792 0.969606 -1.424120 0.645493 0.988844 -0.196636 2.609326 0.000000 0.000000 0.000000 0.973522 0.242327 2.527079 0.800251 -0.229905 0.204902 1.905006 1.915863 -5.833861 0.000000 0.000000 -0.000000 0.977385 0.015266 -0.358209 0.000000 0.000000 0.000000 4.946911 -23.826275 -70.973206 1.945037 -20.731313 0.649406 -36.056914 -1.976703 -1.857831 15.407472 1.746478 17.954482 -2.095517 31.047769 -7.361448 -6.566793 4.137842 -2.408519 0.000001 -0.000001 0.000004 1.840533 3.540808 -7.141733 -2.148887 2.464589 -18.676558 -0.000000 -0.000000 -0.000001 -2.530928 5.645460 -12.530526 0.262685 5.095122 -26.987843 0.000000 0.000000 0.000001 -4.418422 8.570465 -10.379986 4.032624 4.051341 -33.265224 -0.000000 -0.000000 0.000000 -9.388725 12.326872 -21.725732 10.714850 2.545264 -34.824648 0.000001 -0.000000 -0.000003 0.066990 0.243802 0.207524 0.000000 0.000000 0.000000 5.191603 -0.509941 74.572832 -0.334879 18.540946 0.163086 -8.606972 -11.105645 5.741626 15.705837 -2.715116 -17.123148 -2.084094 -31.018754 7.320470 -6.508176 -4.256368 2.326857 0.000001 0.000001 0.000001 2.384401 -3.660983 8.652058 -2.108228 -2.555854 19.242134 0.000000 -0.000000 0.000001 -1.938397 -5.830318 14.312376 0.313799 -5.184769 27.594996 0.000001 -0.000000 -0.000001 -3.089753 -8.298431 13.039126 4.090659 -4.145254 34.052950 -0.000001 -0.000001 0.000004 -6.399152 -12.088552 25.657011 10.741958 -2.614783 35.856888 0.000000 -0.000000 0.000004 -19.453890 12.733730 14.018262 21.552577 13.361135 1.077572 -0.648615 1.298499 -7.648887 -0.473493 -0.000530 -0.000017 -0.000000 -0.000001 -0.000000 -6.790545 -4.164598 2.041159 18.242124 -2.249503 3.655549 -9.813638 1.382400 -3.067443 -0.602645 -0.000178 -0.029885 0.000000 -0.000000 -0.000000 
-0.007068 100.016869 -1.794458 -1.533083 -3.442663 -2.986026 2.036284 -1.507268 0.606713 1.261821 -0.310409 2.528742 0.000000 0.000000 0.000000 1.249909 0.054707 2.460124 0.302905 0.013837 0.261822 1.321119 3.847864 -5.697074 0.000000 0.000000 0.000000 1.986223 0.122395 -0.120703 0.000000 0.000000 0.000000 8.094356 -24.899070 -68.198524 1.185691 -21.611465 0.480244 -46.872788 -1.105430 -4.618165 14.460941 -0.788067 19.800013 -2.095513 31.047735 -7.361374 -6.566820 4.137865 -2.408508 0.000000 -0.000000 0.000002 0.457204 3.136085 -3.650720 -2.148839 2.464596 -18.676532 0.000001 -0.000001 0.000000 -3.994987 5.400555 -9.596935 0.262666 5.095094 -26.987821 -0.000000 0.000002 0.000003 -7.324060 8.382269 -6.964725 4.032599 4.051320 -33.265238 0.000000 0.000001 -0.000003 -15.986891 14.066127 -18.223887 10.714839 2.545244 -34.824686 -0.000000 0.000000 0.000001 0.253462 0.912356 -0.080289 0.000000 0.000000 0.000000 3.636563 1.596724 74.135235 -0.350373 17.651429 0.182489 -7.428749 -12.080561 7.196938 15.498690 -2.672594 -16.866940 -2.065271 -30.942379 7.184838 -6.345253 -4.590289 2.096270 0.000001 0.000001 -0.000000 2.425220 -3.676036 9.111000 -1.989619 -2.809130 20.839833 0.000001 -0.000000 0.000001 -1.823637 -6.185062 16.114513 0.463917 -5.436905 29.301740 0.000001 -0.000002 0.000001 -2.610786 -8.509697 16.860698 4.262494 -4.409927 36.248169 -0.000001 -0.000000 -0.000002 -6.022013 -13.997714 32.140828 10.830958 -2.809676 38.689675 0.000000 -0.000000 0.000003 -19.743420 15.692711 15.387247 22.116026 13.329157 1.099862 -0.951077 -0.014933 -7.553726 -0.473474 -0.000559 -0.000007 0.000000 -0.000001 -0.000000 -8.689841 -4.163936 1.902638 21.293566 -1.162563 3.792391 -8.994878 2.607706 -3.313139 -1.761473 -0.000114 -0.000598 0.000000 0.000000 0.000000 
0.119208 99.902267 -2.383895 -2.260160 -6.116265 -3.385530 3.547082 -1.648414 0.562629 1.649032 -0.475935 2.403264 0.000000 0.000000 0.000000 1.641465 -0.210253 2.353476 -0.093891 0.283680 0.336394 0.006975 6.702319 -5.432571 -0.000000 0.000000 0.000000 3.031712 0.333337 0.350523 0.000000 0.000000 0.000000 12.040985 -27.172070 -65.359672 -0.019240 -23.409182 0.139591 -61.652798 0.361614 -5.512453 13.147954 -4.206701 22.246756 -2.095491 31.047776 -7.361465 -6.566827 4.137878 -2.408524 0.000000 0.000001 0.000001 -1.447959 2.315620 1.244514 -2.148830 2.464604 -18.676520 -0.000002 0.000000 0.000000 -6.062574 4.814491 -5.487620 0.262667 5.095129 -26.987833 0.000001 -0.000000 -0.000000 -11.103929 7.652464 -2.608551 4.032589 4.051313 -33.265214 -0.000001 -0.000001 0.000001 -22.798926 15.170103 -14.593078 10.714840 2.545240 -34.824669 0.000001 -0.000002 -0.000001 0.541578 1.910656 -0.510205 0.000000 0.000000 0.000000 1.015076 3.562545 73.753708 -2.144229 16.565213 0.812394 -3.019893 -13.043820 9.267841 15.179370 -2.609898 -16.470065 -2.035368 -30.824128 6.974156 -6.093337 -5.113519 1.739133 -0.000000 0.000001 -0.000001 2.488009 -3.698795 9.820460 -1.794571 -3.192408 23.310903 0.000001 0.000000 -0.000002 -1.627340 -6.716566 18.865544 0.709958 -5.816758 31.942343 0.000000 0.000001 -0.000004 -1.876418 -8.740766 22.578575 4.547650 -4.801532 39.597007 -0.000000 0.000000 -0.000001 -5.077287 -16.447143 41.729024 11.004880 -3.099509 42.922712 -0.000001 0.000000 -0.000001 -20.600638 19.815188 17.439758 22.899304 11.359921 0.964039 -1.335549 0.032817 -7.155157 -0.473480 -0.000522 -0.000011 -0.000000 -0.000003 -0.000000 -11.233951 -4.109476 1.320005 24.866649 0.695186 4.054870 -8.408716 3.599283 -1.984092 -2.084976 0.037340 -1.406431 0.000000 0.000000 0.000000 
0.287753 99.771027 -3.028575 -2.863367 -9.164051 -3.920894 5.283347 -1.849088 0.522322 2.096226 -0.673417 2.240413 0.000000 0.000000 0.000000 2.092916 -0.513343 2.211526 -0.450335 0.594609 0.431789 -1.746708 10.004497 -5.052604 -0.000000 -0.000000 0.000000 4.117132 0.657557 1.005865 0.000000 0.000000 0.000000 15.953529 -29.708249 -62.779199 -1.655369 -26.434854 -0.428600 -77.762639 2.146573 -4.129061 11.678175 -7.865381 24.808946 -2.095554 31.047779 -7.361411 -6.566812 4.137861 -2.408507 -0.000002 -0.000001 0.000001 -3.518859 1.027691 6.783533 -2.148849 2.464603 -18.676568 -0.000001 0.000000 0.000001 -8.394435 3.799462 -0.851717 0.262628 5.095062 -26.987843 -0.000000 0.000001 -0.000002 -14.827291 6.385113 1.595960 4.032627 4.051314 -33.265231 -0.000001 0.000001 -0.000000 -25.946408 15.458463 -12.930936 10.714862 2.545239 -34.824720 -0.000000 0.000001 -0.000002 0.913444 3.143517 -1.042106 0.000000 0.000000 0.000000 -2.332374 5.204005 73.608798 -0.324170 15.628842 0.222815 -1.025648 -13.925716 11.818743 14.769215 -2.534313 -15.957164 -1.995189 -30.671610 6.701159 -5.768913 -5.799335 1.278707 -0.000000 -0.000000 -0.000001 2.568331 -3.727044 10.734765 -1.522819 -3.671177 26.499315 0.000001 0.000000 -0.000003 -1.342276 -7.372527 22.360363 1.051490 -6.287624 35.350665 -0.000001 -0.000001 0.000001 -0.955549 -8.884944 29.655592 4.948537 -5.274748 43.847147 0.000001 -0.000000 -0.000000 -3.467074 -18.779306 53.397456 11.288119 -3.447786 48.156358 0.000000 0.000000 -0.000000 -22.141766 24.425518 20.120235 23.792095 9.046310 0.805901 -1.753063 0.117154 -6.666511 -0.473482 -0.000525 -0.000014 0.000000 -0.000003 -0.000000 -13.559413 -4.026099 0.678054 27.571993 2.990929 4.281252 -7.729127 4.936930 -0.250007 -2.264619 0.064023 -2.142786 -0.000000 -0.000000 0.000000 
0.488749 99.625435 -3.636877 -3.207753 -12.588763 -4.560817 7.026110 -2.109609 0.480342 2.550238 -0.882872 2.048026 0.000000 0.000000 0.000000 2.550241 -0.815325 2.038929 -0.731333 0.925316 0.541038 -3.787914 13.662916 -4.573871 0.000000 0.000000 0.000000 5.244460 1.102395 1.795153 0.000000 0.000000 0.000000 19.341986 -32.120792 -60.738871 -3.320622 -30.903761 -1.069499 -93.858288 3.122379 -0.056915 10.278504 -11.158320 27.060637 -2.095520 31.047793 -7.361448 -6.566797 4.137884 -2.408531 -0.000002 -0.000001 0.000001 -5.423186 -0.612422 12.233117 -2.148895 2.464580 -18.676519 0.000002 -0.000001 -0.000000 -10.644910 2.425739 3.682622 0.262667 5.095111 -26.987911 0.000002 -0.000000 0.000001 -17.617423 5.057749 4.692387 4.032610 4.051336 -33.265221 0.000002 0.000001 -0.000000 -25.632633 15.617467 -13.861036 10.714840 2.545215 -34.824713 -0.000001 -0.000000 -0.000004 1.347015 4.516616 -1.634598 0.000000 0.000000 0.000000 -6.053206 6.556641 73.558392 -0.301884 15.093567 0.250034 3.251348 -14.699901 14.455849 14.289769 -2.453210 -15.352845 -1.945825 -30.492365 6.378087 -5.388734 -6.621092 0.738193 -0.000000 -0.000003 -0.000001 2.661676 -3.758898 11.808398 -1.175640 -4.210236 30.248907 -0.000001 0.000000 0.000001 -0.965673 -8.099955 26.393376 1.486008 -6.811814 39.360772 0.000001 -0.000001 0.000001 0.058835 -8.863373 37.547107 5.462070 -5.782488 48.745612 -0.000001 -0.000000 -0.000000 -1.406456 -20.482559 65.967941 11.691973 -3.810627 53.991454 -0.000002 0.000000 0.000001 -24.358381 28.856439 23.357324 24.792332 8.219632 0.770406 -2.233799 -0.946048 -6.453516 -0.473517 -0.000541 -0.000018 -0.000000 -0.000001 -0.000000 -15.395439 -3.976906 0.162833 29.008302 5.471779 4.425250 -7.062767 6.539815 1.452428 -2.246861 0.063502 -2.132643 -0.000000 -0.000000 -0.000000 
